<?xml version="1.0" encoding="UTF-8"?>
<!DOCTYPE svg PUBLIC "-//W3C//DTD SVG 1.1//EN" "http://www.w3.org/Graphics/SVG/1.1/DTD/svg11.dtd">
<!-- Creator: CorelDRAW -->
<svg xmlns="http://www.w3.org/2000/svg" xml:space="preserve" width="55.1286mm" height="35.29mm" version="1.1" style="shape-rendering:geometricPrecision; text-rendering:geometricPrecision; image-rendering:optimizeQuality; fill-rule:evenodd; clip-rule:evenodd"
viewBox="0 0 2400.86 1536.89"
 xmlns:xlink="http://www.w3.org/1999/xlink"
 xmlns:xodm="http://www.corel.com/coreldraw/odm/2003">
 <defs>
  <style type="text/css">
   <![CDATA[
    .fil9 {fill:none}
    .fil2 {fill:#B0DFE4}
    .fil8 {fill:#00A859}
    .fil10 {fill:#00A859}
    .fil1 {fill:#354B90}
    .fil0 {fill:#B0DFE4;fill-rule:nonzero}
    .fil6 {fill:url(#id6)}
    .fil3 {fill:url(#id7)}
    .fil4 {fill:url(#id8)}
    .fil5 {fill:url(#id9)}
    .fil7 {fill:url(#id10)}
   ]]>
  </style>
     <clipPath id="id0">
      <path d="M709.91 1507.61c8.07,0.58 14.15,7.6 13.57,15.67 -0.58,8.07 -7.59,14.15 -15.66,13.57 -8.07,-0.58 -14.15,-7.59 -13.57,-15.66 0.58,-8.07 7.6,-14.15 15.66,-13.57z"/>
     </clipPath>
     <clipPath id="id1">
      <path d="M619.59 1446.84c18.91,1.36 33.14,17.79 31.78,36.7 -1.35,18.91 -17.79,33.14 -36.7,31.78 -18.91,-1.35 -33.14,-17.79 -31.79,-36.7 1.36,-18.91 17.79,-33.14 36.7,-31.79z"/>
     </clipPath>
     <clipPath id="id2">
      <path d="M2206.53 1136.89c17.01,1.22 29.81,16 28.6,33.02 -1.22,17.02 -16,29.81 -33.02,28.6 -17.02,-1.22 -29.82,-16 -28.6,-33.01 1.22,-17.02 16,-29.82 33.02,-28.6z"/>
     </clipPath>
     <clipPath id="id3">
      <path d="M0.1 1418.97c0,0 134.42,-186.12 585.34,-166.32 0,0 184.06,17.65 579.94,95.9 395.89,78.25 729.98,115.97 858.92,-16.49 128.95,-132.45 138.87,-116.58 158.37,-95.26 19.49,21.32 31.23,47.98 31.23,47.98 0,0 33.61,-26.31 44.9,-55.22 11.29,-28.9 31.87,-93.08 87.91,-89.06 56.03,4.02 55.12,52.79 53.75,71.88 -1.37,19.09 -16.58,40.69 -69.05,82.01 -52.46,41.32 -71.17,56.51 -256.57,138.93 0,0 -37.21,12.58 -42.67,19.24 -5.45,6.66 -10.37,11.69 -61.38,26.28 -51.01,14.58 -248.67,71.43 -542.9,50.32 -294.23,-21.1 -592.2,-129.2 -592.2,-129.2 0,0 15.9,15.05 14.45,35.27 -1.45,20.22 -23.79,33.68 -63.53,30.83 -39.74,-2.85 -69.66,-20.41 -122.46,-60.99 -52.8,-40.58 -70.1,-43.57 -106.18,-43.71 0,0 16.08,24.98 14.45,47.64 -1.62,22.65 -30.31,22 -40.29,24.44 -9.99,2.44 -20.39,5.9 -39.57,4.52 -19.17,-1.38 -42.92,-17.09 -52.55,-34.25 -9.63,-17.16 -34.82,-32.28 -134.52,-39.43 -99.7,-7.15 -164.73,5.71 -305.4,54.69z"/>
     </clipPath>
     <clipPath id="id4">
      <path d="M2262.68 1388.78c21.64,1.55 37.92,20.35 36.37,41.99 -1.55,21.64 -20.36,37.92 -41.99,36.37 -21.64,-1.55 -37.92,-20.35 -36.37,-41.99 1.55,-21.64 20.35,-37.92 41.99,-36.37z"/>
     </clipPath>
     <clipPath id="id5">
      <path d="M2156.97 1431.21c11.99,0.86 21.02,11.28 20.16,23.27 -0.86,11.99 -11.28,21.01 -23.27,20.16 -11.99,-0.86 -21.01,-11.28 -20.16,-23.27 0.86,-11.99 11.28,-21.02 23.27,-20.16z"/>
     </clipPath>
  <linearGradient id="id6" gradientUnits="userSpaceOnUse" x1="936.65" y1="12.04" x2="917.21" y2="519.52">
   <stop offset="0" style="stop-opacity:1; stop-color:#8BD5E9"/>
   <stop offset="0.501961" style="stop-opacity:1; stop-color:#8DD5EB"/>
   <stop offset="1" style="stop-opacity:1; stop-color:#1F7CBF"/>
  </linearGradient>
  <linearGradient id="id7" gradientUnits="userSpaceOnUse" x1="1273.3" y1="627.13" x2="1912.33" y2="632.66">
   <stop offset="0" style="stop-opacity:1; stop-color:#90D6E7"/>
   <stop offset="0.541176" style="stop-opacity:1; stop-color:#68B1C6"/>
   <stop offset="1" style="stop-opacity:1; stop-color:#0C7488"/>
  </linearGradient>
  <linearGradient id="id8" gradientUnits="userSpaceOnUse" x1="615.84" y1="636.19" x2="1252.69" y2="636.19">
   <stop offset="0" style="stop-opacity:1; stop-color:#91D7EA"/>
   <stop offset="0.611765" style="stop-opacity:1; stop-color:#5CA6BA"/>
   <stop offset="1" style="stop-opacity:1; stop-color:#0F7988"/>
  </linearGradient>
  <linearGradient id="id9" gradientUnits="userSpaceOnUse" x1="908.01" y1="0.91" x2="945.84" y2="686.65">
   <stop offset="0" style="stop-opacity:1; stop-color:#8DD5EB"/>
   <stop offset="1" style="stop-opacity:1; stop-color:#1F79BD"/>
  </linearGradient>
  <linearGradient id="id10" gradientUnits="userSpaceOnUse" x1="775.11" y1="368.7" x2="944.29" y2="368.7">
   <stop offset="0" style="stop-opacity:1; stop-color:#8DD6EC"/>
   <stop offset="1" style="stop-opacity:1; stop-color:#227BBA"/>
  </linearGradient>
 </defs>
 <g id="Layer_x0020_1">
  <metadata id="CorelCorpID_0Corel-Layer"/>
  <g id="_1733832306960">
   <path class="fil0" d="M583.96 983.86l12.14 -86.35 80.96 0 -2.7 21.14 -90.4 65.21zm-2.7 19.79l89.95 -65.21 -38.23 273.9 -80.96 0 29.24 -208.69z"/>
   <polygon class="fil0" points="1122.57,897.5 1414.91,897.5 1370.39,960.47 1300.23,960.47 1265.15,1212.33 1184.19,1212.33 1219.27,960.47 1167.1,960.47 "/>
   <path class="fil0" d="M1835.97 1212.33c-11.99,0 -22.72,-1.95 -32.16,-5.85 -9.45,-3.9 -17.24,-9.37 -23.39,-16.41 -6.15,-7.05 -10.5,-15.59 -13.04,-25.64 -2.55,-10.04 -2.92,-21.06 -1.12,-33.05l21.59 -152.92c1.8,-12.29 5.32,-23.39 10.57,-33.28 5.24,-9.89 11.92,-18.37 20.01,-25.41 8.1,-7.05 17.39,-12.52 27.89,-16.41 10.5,-3.9 21.74,-5.85 33.73,-5.85l177.65 0 -44.53 62.96 -98.5 0c-13.19,0 -24.36,4.42 -33.5,13.27 -9.15,8.85 -14.77,20.61 -16.87,35.3l-12.59 91.75c-2.1,14.69 0.07,26.46 6.52,35.31 6.45,8.85 16.27,13.27 29.46,13.27l105.24 0 44.53 62.96 -201.49 0z"/>
   <polygon class="fil1" points="124.56,1062.52 235.37,1062.52 614.18,683.12 988.62,1062.52 1099.42,1062.52 940.61,903.1 1266.57,578.83 1587.88,905.44 1435.05,1062.52 1540.04,1062.52 1915.61,683.12 2292.64,1062.52 2400.86,1062.52 1912.91,572.73 1642.13,849.69 1265.81,472.96 884.9,847.19 610.82,572.08 "/>
   <polygon class="fil2" points="614.61,794.49 935.49,1033.82 614.61,707.03 293.6,1033.82 "/>
   <polygon class="fil2" points="1911.15,794.49 2232.02,1033.82 1911.15,707.03 1590.13,1033.82 "/>
   <polygon class="fil2" points="1262.04,687.28 1539.5,882.04 1263.99,610.16 997.98,870.42 "/>
   <polygon class="fil3" points="1273.27,443.32 1523.74,629.23 1609.98,607.73 1608.7,522.83 1689.08,506.67 1688.52,548.46 1686.74,669.8 1737.19,659.45 1737.19,585.06 1912.37,549.01 1642.66,816.47 "/>
   <polygon class="fil4" points="1252.69,452.03 887.65,820.35 615.85,546.73 615.85,546.73 967.05,618.65 1098.52,561.66 "/>
   <path class="fil5" d="M666.95 64.39c0,0 6.01,296.54 6.01,348.82 0,51.64 57.66,152.68 118.2,187.41 78.83,45.21 91.22,31.13 135.75,86.94 21.68,-42.7 90.26,-59.1 148.63,-99.45 57.83,-39.98 108.56,-132.15 108.56,-219.12 0,-52.29 2.78,-302.66 2.78,-302.66 -128.5,-9.75 -206.1,-45.48 -239.7,-64.9l0 0 15.93 57.49c52.14,24.16 121.79,44.49 178.93,48.83 -0.01,101.59 1.75,112.04 1.75,214.14 0,104.29 -26.92,149.7 -37.96,167.82 -15.4,25.27 -38.63,52.59 -64.39,69.07 -15.63,13.07 -84.51,36.17 -113.85,65.75l-0.07 0.06 0 -0.06c-11.32,-14 -34.11,-25.12 -45.21,-29.96l-0.01 0.43c-2.09,-1 -4.21,-2.02 -6.36,-3.06l0 -0c-17.93,-8.71 -37.78,-19.1 -62.27,-33.15 -25.76,-14.77 -50.27,-43.81 -65.68,-69.07 -11.04,-18.11 -31.07,-58.98 -31.07,-108.17 0,-102.09 -3.12,-171.88 -5.13,-273.78 58.17,-4.42 130.6,-24.12 183.04,-48.85 0,0 9.66,-14.31 11.11,-58.89l0 -0c-33.42,24.09 -107.85,63.36 -238.99,64.39z"/>
   <path class="fil6" d="M775.11 363.19c0,60.7 39.66,156.86 157.15,156.86 75.68,0 146.47,-47.09 146.47,-154.92 0,-29.19 -8.74,-59.81 -25.55,-89.97 -12.06,-21.65 -29.71,-41.64 -44.61,-67.33 -27.01,-46.59 -54.17,-109.11 -81.18,-196.3 -22.23,154.46 -152.29,274.59 -152.29,351.66zm170.12 -220.6c0,0 16.51,10.64 22.15,31.71 5.65,21.07 12.8,45.74 34.08,74.24 21.27,28.49 53.95,88.89 53.95,129.16 0,40.27 -26.51,68.75 -48.63,68.75 -22.12,0 -31.89,-19.82 -31.89,-33.9 0,-14.08 10.63,-33.61 10.63,-68.94 0,-35.34 -36.21,-89.53 -40.29,-201.02z"/>
   <path class="fil7" d="M775.11 363.19c0,60.7 39.66,156.86 157.15,156.86 53.73,-175.59 -89.93,-302.69 -89.93,-302.69l0 -0c-35.07,58.54 -67.22,107.51 -67.22,145.84z"/>
   <g>
    <path class="fil8" d="M709.91 1507.61c8.07,0.58 14.15,7.6 13.57,15.67 -0.58,8.07 -7.59,14.15 -15.66,13.57 -8.07,-0.58 -14.15,-7.59 -13.57,-15.66 0.58,-8.07 7.6,-14.15 15.66,-13.57z"/>
    <g style="clip-path:url(#id0)">
     <g>
      <image transform="matrix(0.0640035 0.00459081 -0.00459081 0.0640035 692.522 1503.42)" x="0" y="0" width="553.08" height="549.39" xlink:href="Insula Tech_Images\Insula Tech_ImgID1.png"/>
     </g>
    </g>
    <path class="fil9" d="M709.91 1507.61c8.07,0.58 14.15,7.6 13.57,15.67 -0.58,8.07 -7.59,14.15 -15.66,13.57 -8.07,-0.58 -14.15,-7.59 -13.57,-15.66 0.58,-8.07 7.6,-14.15 15.66,-13.57z"/>
    <path class="fil8" d="M619.59 1446.84c18.91,1.36 33.14,17.79 31.78,36.7 -1.35,18.91 -17.79,33.14 -36.7,31.78 -18.91,-1.35 -33.14,-17.79 -31.79,-36.7 1.36,-18.91 17.79,-33.14 36.7,-31.79z"/>
    <g style="clip-path:url(#id1)">
     <g>
      <image transform="matrix(0.149927 0.0107539 -0.0107539 0.149927 578.853 1437.01)" x="0" y="0" width="553.08" height="549.39" xlink:href="Insula Tech_Images\Insula Tech_ImgID2.png"/>
     </g>
    </g>
    <path class="fil9" d="M619.59 1446.84c18.91,1.36 33.14,17.79 31.78,36.7 -1.35,18.91 -17.79,33.14 -36.7,31.78 -18.91,-1.35 -33.14,-17.79 -31.79,-36.7 1.36,-18.91 17.79,-33.14 36.7,-31.79z"/>
    <path class="fil8" d="M2206.53 1136.89c17.01,1.22 29.81,16 28.6,33.02 -1.22,17.02 -16,29.81 -33.02,28.6 -17.02,-1.22 -29.82,-16 -28.6,-33.01 1.22,-17.02 16,-29.82 33.02,-28.6z"/>
    <g style="clip-path:url(#id2)">
     <g>
      <image transform="matrix(0.134891 0.00967537 -0.00967537 0.134891 2169.88 1128.06)" x="0" y="0" width="553.08" height="549.39" xlink:href="Insula Tech_Images\Insula Tech_ImgID3.png"/>
     </g>
    </g>
    <path class="fil9" d="M2206.53 1136.89c17.01,1.22 29.81,16 28.6,33.02 -1.22,17.02 -16,29.81 -33.02,28.6 -17.02,-1.22 -29.82,-16 -28.6,-33.01 1.22,-17.02 16,-29.82 33.02,-28.6z"/>
    <path class="fil9" d="M-0 1420.3c0,0 134.43,-186.12 585.34,-166.32 0,0 184.06,17.65 579.95,95.9 395.89,78.25 729.97,115.96 858.92,-16.49 128.95,-132.45 138.87,-116.57 158.37,-95.25 19.49,21.31 31.23,47.97 31.23,47.97 0,0 33.61,-26.31 44.9,-55.22 11.29,-28.91 31.87,-93.09 87.91,-89.07 56.03,4.02 55.13,52.79 53.75,71.88 -1.37,19.09 -16.58,40.69 -69.05,82.02 -52.46,41.32 -71.17,56.5 -256.56,138.93 0,0 -37.22,12.58 -42.67,19.24 -5.45,6.65 -10.37,11.69 -61.38,26.28 -51.01,14.58 -248.67,71.42 -542.9,50.32 -294.23,-21.1 -592.2,-129.2 -592.2,-129.2 0,0 15.9,15.05 14.45,35.27 -1.45,20.22 -23.79,33.68 -63.53,30.83 -39.74,-2.85 -69.66,-20.41 -122.46,-60.99 -52.8,-40.58 -70.11,-43.57 -106.18,-43.7 0,0 16.08,24.98 14.45,47.64 -1.63,22.66 -30.31,22 -40.3,24.44 -9.98,2.43 -20.39,5.89 -39.57,4.52 -19.17,-1.38 -42.92,-17.09 -52.55,-34.25 -9.63,-17.16 -34.82,-32.28 -134.52,-39.43 -99.69,-7.15 -164.73,5.7 -305.4,54.69z"/>
    <path class="fil9" d="M709.91 1507.61c8.07,0.58 14.15,7.6 13.57,15.67 -0.58,8.07 -7.59,14.15 -15.66,13.57 -8.07,-0.58 -14.15,-7.59 -13.57,-15.66 0.58,-8.07 7.6,-14.15 15.66,-13.57z"/>
    <path class="fil10" d="M0.1 1418.97c0,0 134.42,-186.12 585.34,-166.32 0,0 184.06,17.65 579.94,95.9 395.89,78.25 729.98,115.97 858.92,-16.49 128.95,-132.45 138.87,-116.58 158.37,-95.26 19.49,21.32 31.23,47.98 31.23,47.98 0,0 33.61,-26.31 44.9,-55.22 11.29,-28.9 31.87,-93.08 87.91,-89.06 56.03,4.02 55.12,52.79 53.75,71.88 -1.37,19.09 -16.58,40.69 -69.05,82.01 -52.46,41.32 -71.17,56.51 -256.57,138.93 0,0 -37.21,12.58 -42.67,19.24 -5.45,6.66 -10.37,11.69 -61.38,26.28 -51.01,14.58 -248.67,71.43 -542.9,50.32 -294.23,-21.1 -592.2,-129.2 -592.2,-129.2 0,0 15.9,15.05 14.45,35.27 -1.45,20.22 -23.79,33.68 -63.53,30.83 -39.74,-2.85 -69.66,-20.41 -122.46,-60.99 -52.8,-40.58 -70.1,-43.57 -106.18,-43.71 0,0 16.08,24.98 14.45,47.64 -1.62,22.65 -30.31,22 -40.29,24.44 -9.99,2.44 -20.39,5.9 -39.57,4.52 -19.17,-1.38 -42.92,-17.09 -52.55,-34.25 -9.63,-17.16 -34.82,-32.28 -134.52,-39.43 -99.7,-7.15 -164.73,5.71 -305.4,54.69z"/>
    <g style="clip-path:url(#id3)">
     <g>
      <image transform="matrix(0.145542 0.0104394 -0.0104394 0.145542 31.8096 974.42)" x="0" y="0" width="16308.69" height="3108.35" xlink:href="Insula Tech_Images\Insula Tech_ImgID4.png"/>
     </g>
    </g>
    <path class="fil9" d="M0.1 1418.97c0,0 134.42,-186.12 585.34,-166.32 0,0 184.06,17.65 579.94,95.9 395.89,78.25 729.98,115.97 858.92,-16.49 128.95,-132.45 138.87,-116.58 158.37,-95.26 19.49,21.32 31.23,47.98 31.23,47.98 0,0 33.61,-26.31 44.9,-55.22 11.29,-28.9 31.87,-93.08 87.91,-89.06 56.03,4.02 55.12,52.79 53.75,71.88 -1.37,19.09 -16.58,40.69 -69.05,82.01 -52.46,41.32 -71.17,56.51 -256.57,138.93 0,0 -37.21,12.58 -42.67,19.24 -5.45,6.66 -10.37,11.69 -61.38,26.28 -51.01,14.58 -248.67,71.43 -542.9,50.32 -294.23,-21.1 -592.2,-129.2 -592.2,-129.2 0,0 15.9,15.05 14.45,35.27 -1.45,20.22 -23.79,33.68 -63.53,30.83 -39.74,-2.85 -69.66,-20.41 -122.46,-60.99 -52.8,-40.58 -70.1,-43.57 -106.18,-43.71 0,0 16.08,24.98 14.45,47.64 -1.62,22.65 -30.31,22 -40.29,24.44 -9.99,2.44 -20.39,5.9 -39.57,4.52 -19.17,-1.38 -42.92,-17.09 -52.55,-34.25 -9.63,-17.16 -34.82,-32.28 -134.52,-39.43 -99.7,-7.15 -164.73,5.71 -305.4,54.69z"/>
    <path class="fil8" d="M2262.68 1388.78c21.64,1.55 37.92,20.35 36.37,41.99 -1.55,21.64 -20.36,37.92 -41.99,36.37 -21.64,-1.55 -37.92,-20.35 -36.37,-41.99 1.55,-21.64 20.35,-37.92 41.99,-36.37z"/>
    <g style="clip-path:url(#id4)">
     <g>
      <image transform="matrix(0.171548 0.0123047 -0.0123047 0.171548 2216.07 1377.54)" x="0" y="0" width="553.08" height="549.39" xlink:href="Insula Tech_Images\Insula Tech_ImgID5.png"/>
     </g>
    </g>
    <path class="fil9" d="M2262.68 1388.78c21.64,1.55 37.92,20.35 36.37,41.99 -1.55,21.64 -20.36,37.92 -41.99,36.37 -21.64,-1.55 -37.92,-20.35 -36.37,-41.99 1.55,-21.64 20.35,-37.92 41.99,-36.37z"/>
    <path class="fil8" d="M2156.97 1431.21c11.99,0.86 21.02,11.28 20.16,23.27 -0.86,11.99 -11.28,21.01 -23.27,20.16 -11.99,-0.86 -21.01,-11.28 -20.16,-23.27 0.86,-11.99 11.28,-21.02 23.27,-20.16z"/>
    <g style="clip-path:url(#id5)">
     <g>
      <image transform="matrix(0.0950726 0.00681932 -0.00681932 0.0950726 2131.14 1424.97)" x="0" y="0" width="553.08" height="549.39" xlink:href="Insula Tech_Images\Insula Tech_ImgID6.png"/>
     </g>
    </g>
    <path class="fil9" d="M2156.97 1431.21c11.99,0.86 21.02,11.28 20.16,23.27 -0.86,11.99 -11.28,21.01 -23.27,20.16 -11.99,-0.86 -21.01,-11.28 -20.16,-23.27 0.86,-11.99 11.28,-21.02 23.27,-20.16z"/>
   </g>
  </g>
 </g>
</svg>
